<svg aria-hidden="true" style="position:absolute;width:0;height:0;overflow:hidden" xmlns="http://www.w3.org/2000/svg">
    <defs>
        <symbol id="icon-instagram" viewBox="0 0 20 20">
            <path d="M19.98 5.88c-.047-1.063-.219-1.793-.465-2.426a4.88 4.88 0 0 0-1.157-1.774 4.923 4.923 0 0 0-1.77-1.153c-.637-.246-1.363-.418-2.426-.465-1.071-.051-1.411-.063-4.126-.063S6.981.011 5.914.058C4.851.105 4.121.277 3.488.523A4.88 4.88 0 0 0 1.714 1.68 4.936 4.936 0 0 0 .561 3.45C.315 4.087.143 4.813.096 5.876.045 6.947.033 7.286.033 10.002s.012 3.055.059 4.122c.047 1.063.219 1.793.465 2.426a4.93 4.93 0 0 0 1.156 1.774c.5.508 1.106.903 1.77 1.153.637.246 1.363.418 2.426.465 1.066.047 1.407.059 4.122.059s3.055-.012 4.122-.059c1.063-.047 1.793-.219 2.426-.465a5.118 5.118 0 0 0 2.927-2.926c.246-.637.418-1.364.465-2.426.047-1.067.059-1.407.059-4.122s-.004-3.055-.051-4.122zm-1.801 8.166c-.043.977-.207 1.504-.344 1.856a3.32 3.32 0 0 1-1.899 1.899c-.352.137-.883.301-1.856.344-1.055.047-1.371.059-4.04.059s-2.989-.012-4.04-.059c-.977-.043-1.504-.207-1.856-.344a3.078 3.078 0 0 1-1.149-.746 3.102 3.102 0 0 1-.746-1.149c-.137-.352-.301-.883-.344-1.856-.047-1.055-.059-1.371-.059-4.04s.012-2.989.059-4.04c.043-.977.207-1.504.344-1.856a3.04 3.04 0 0 1 .75-1.149 3.102 3.102 0 0 1 1.149-.746c.352-.137.883-.301 1.856-.344 1.055-.047 1.371-.059 4.04-.059 2.673 0 2.989.012 4.04.059.977.043 1.504.207 1.856.344.433.16.828.414 1.149.746.332.324.586.715.746 1.149.137.352.301.883.344 1.856.047 1.055.059 1.371.059 4.04s-.012 2.981-.059 4.036z"/>
            <path d="M10.037 4.864a5.139 5.139 0 1 0 .002 10.274 5.139 5.139 0 0 0-.002-10.274zm0 8.471a3.333 3.333 0 1 1 0-6.667 3.333 3.333 0 0 1 0 6.667zM16.578 4.661a1.2 1.2 0 1 1-2.399 0 1.2 1.2 0 0 1 2.399 0z"/>
        </symbol>
        <symbol id="icon-linkedin" viewBox="0 0 20 20">
            <path d="M19.995 20v-.001H20v-7.335c0-3.588-.773-6.352-4.968-6.352-2.017 0-3.37 1.107-3.922 2.156h-.058V6.647H7.075v13.352h4.142v-6.612c0-1.741.33-3.424 2.486-3.424 2.124 0 2.156 1.987 2.156 3.536V20h4.138zM.33 6.647h4.147V20H.33V6.647zM2.402 0C1.076 0 0 1.076 0 2.402s1.076 2.424 2.402 2.424 2.402-1.098 2.402-2.424S3.727 0 2.402 0z"/>
        </symbol>
        <symbol id="icon-facebook" viewBox="0 0 20 20">
            <path d="M13.331 3.321h1.826V.141A23.64 23.64 0 0 0 12.497 0C9.865 0 8.061 1.656 8.061 4.699V7.5H5.156v3.555h2.905V20h3.562v-8.944h2.787l.442-3.555h-3.231V5.052c.001-1.027.277-1.731 1.709-1.731z"/>
        </symbol>
        <symbol id="icon-twitter" viewBox="0 0 20 20">
            <path d="M20 3.799a8.557 8.557 0 0 1-2.363.648 4.08 4.08 0 0 0 1.804-2.266 8.208 8.208 0 0 1-2.6.992 4.099 4.099 0 0 0-7.092 2.803c0 .325.028.638.095.935-3.409-.166-6.425-1.8-8.451-4.289a4.104 4.104 0 0 0 1.26 5.48A4.049 4.049 0 0 1 .8 7.597v.045a4.12 4.12 0 0 0 3.285 4.029 4.101 4.101 0 0 1-1.075.135c-.263 0-.527-.015-.776-.07.531 1.624 2.039 2.818 3.831 2.856a8.24 8.24 0 0 1-5.084 1.749A7.72 7.72 0 0 1 0 16.285a11.545 11.545 0 0 0 6.29 1.84c7.545 0 11.67-6.25 11.67-11.667 0-.181-.006-.356-.015-.53A8.16 8.16 0 0 0 20 3.799z"/>
        </symbol>
        <symbol id="icon-Vector" viewBox="0 0 10 16">
            <path d="M8.5 0h-7C.673 0 0 .673 0 1.5v13c0 .827.673 1.5 1.5 1.5h7c.827 0 1.5-.673 1.5-1.5v-13C10 .673 9.327 0 8.5 0zm-7 1h7a.5.5 0 0 1 .5.5V12H1V1.5a.5.5 0 0 1 .5-.5zm7 14h-7a.5.5 0 0 1-.5-.5V13h8v1.5a.5.5 0 0 1-.5.5z"/>
        </symbol>
        <symbol id="icon-envelope-hover" viewBox="0 0 21 16">
            <path d="M19.333 0H2C.897 0 0 .897 0 2v12c0 1.103.897 2 2 2h17.333c1.103 0 2-.897 2-2V2c0-1.103-.897-2-2-2zm0 1.333c.091 0 .177.019.255.052l-8.922 7.733-8.922-7.733A.661.661 0 0 1 2 1.333h17.333zm0 13.334H2A.667.667 0 0 1 1.333 14V2.794l8.896 7.71a.665.665 0 0 0 .874 0l8.896-7.71V14a.667.667 0 0 1-.667.667z"/>
        </symbol>
        <symbol id="icon-astronaut" viewBox="0 0 70 70">
            <path fill="#2196f3" style="fill:var(--color1, #2196f3)" d="M69.943 9.896a1.169 1.169 0 0 0-.942-.793l-4.179-.608-1.87-3.787c-.392-.798-1.7-.798-2.092 0l-1.87 3.787-4.179.608a1.17 1.17 0 0 0-.943.793c-.136.422-.023.887.295 1.196l3.025 2.948-.714 4.163c-.075.437.105.88.463 1.141.363.264.836.296 1.23.089l3.738-1.966 3.738 1.966a1.164 1.164 0 0 0 1.23-.089c.359-.261.539-.703.463-1.141l-.714-4.163 3.025-2.948c.317-.31.431-.774.295-1.196zm-5.387 2.903c-.274.267-.4.654-.335 1.033l.418 2.437-2.189-1.15a1.161 1.161 0 0 0-1.088 0l-2.189 1.15.418-2.437a1.17 1.17 0 0 0-.335-1.033l-1.772-1.727 2.448-.356a1.17 1.17 0 0 0 .879-.638l1.094-2.217 1.094 2.217c.17.344.498.583.879.638l2.448.356-1.77 1.727zM57.167 44.892h-2.333v2.333h2.333v-2.333zM57.167 49.559h-2.333v2.333h2.333v-2.333zM59.5 47.226h-2.333v2.333H59.5v-2.333zM54.834 47.226h-2.333v2.333h2.333v-2.333zM49 57.726h-2.333v2.333H49v-2.333zM49 62.393h-2.333v2.333H49v-2.333zM51.334 60.059H49v2.333h2.334v-2.333zM46.667 60.059h-2.333v2.333h2.333v-2.333zM35 53.059h-2.333v2.333H35v-2.333zM35 57.726h-2.333v2.333H35v-2.333zM37.333 55.392H35v2.333h2.333v-2.333zM32.667 55.392h-2.333v2.333h2.333v-2.333zM12.833 13.392H10.5v2.333h2.333v-2.333zM12.833 18.059H10.5v2.333h2.333v-2.333zM15.166 15.725h-2.333v2.333h2.333v-2.333zM10.5 15.725H8.167v2.333H10.5v-2.333z"/>
            <path fill="#212121" style="fill:var(--color2, #212121)" d="M54.064 30.974a3.882 3.882 0 0 0-2.599-1.541 3.887 3.887 0 0 0-2.931.77l-2.74 2.1-4.151 3.1-2.97-1.183c5.297-2.377 8.999-7.674 8.999-13.825 0-8.363-6.831-15.167-15.228-15.167s-15.227 6.804-15.227 15.167c0 3.031.906 5.85 2.45 8.222l-6.046-.052h-.011c-.019 0-.034.009-.051.011a1.13 1.13 0 0 0-.339.068c-.028.011-.057.016-.084.029-.014.006-.028.007-.042.014l-7.072 3.492-.002.001-4.142 1.992a.954.954 0 0 0-.138.077A3.894 3.894 0 0 0 .431 39.27a3.884 3.884 0 0 0 2.31 1.945 3.886 3.886 0 0 0 3.015-.281l3.036-1.615 4.952-2.557 2.968-.017L4.808 48.592l-.004.002-2.928 2.917a3.606 3.606 0 0 0-1.072 2.576c0 .973.38 1.889 1.072 2.578a3.649 3.649 0 0 0 2.58 1.062c.936 0 1.869-.355 2.582-1.062l2.875-2.863 3.808-2.843 1.971 1.962-3.854 3.837-.004.002-2.928 2.917a3.606 3.606 0 0 0-1.072 2.576c0 .973.38 1.889 1.072 2.578.711.707 1.646 1.062 2.581 1.062s1.87-.355 2.582-1.062l7.616-7.583.002-.004 2.209-2.188-.008-.008c.014-.014.034-.019.048-.034l11.3-12.377 7.593 1.08c.055.008.11.012.164.012.141 0 .278-.034.409-.084.038-.014.072-.033.108-.051.042-.021.086-.033.126-.059l7.029-4.667c.026-.017.04-.046.064-.064.028-.022.063-.031.089-.056l2.781-2.605a3.891 3.891 0 0 0 .464-5.166zM4.66 38.872c-.379.203-.81.244-1.221.113a1.562 1.562 0 0 1-.464-2.756l2.874-1.383.982 2.871-2.17 1.154zm7.65-3.998-3.387 1.75-.96-2.807 4.434-2.189-.087 3.246zm33.03-14.482c0 2.009-.479 3.904-1.31 5.599l-9.147-4.154a4.075 4.075 0 0 0-1.724-3.036l3.203-10.632c5.201 1.654 8.979 6.507 8.979 12.223zm-25.788 0c0-7.076 5.784-12.834 12.894-12.834.553 0 1.094.047 1.63.114l-3.133 10.399c-.042-.001-.082-.013-.125-.013-2.259 0-4.096 1.832-4.096 4.083s1.838 4.084 4.096 4.084c1.519 0 2.832-.839 3.54-2.066l8.449 3.838c-2.351 3.164-6.114 5.228-10.361 5.228-7.11 0-12.894-5.758-12.894-12.834zm13.029 1.75c0 .965-.791 1.75-1.763 1.75s-1.763-.785-1.763-1.75.791-1.75 1.763-1.75 1.763.785 1.763 1.75zM5.392 55.007a1.33 1.33 0 0 1-1.869.001 1.297 1.297 0 0 1 0-1.847l2.105-2.097 1.862 1.854-2.098 2.088zm7.03 8.167a1.33 1.33 0 0 1-1.87.001 1.296 1.296 0 0 1-.385-.925c0-.348.136-.676.385-.922l2.106-2.098 1.863 1.854-2.099 2.089zm7.616-7.588-.004.002-3.861 3.85-1.863-1.854 3.857-3.839v-.001l.004-.002c.087-.087.142-.193.196-.296.015-.03.044-.056.057-.087.036-.09.042-.187.056-.281.007-.054.03-.104.03-.159 0-.078-.028-.154-.044-.231-.014-.07-.014-.141-.041-.209a1.148 1.148 0 0 0-.199-.301c-.022-.026-.03-.058-.055-.083h-.001l-.002-.005-3.515-3.5c-.037-.037-.085-.052-.127-.084a1.118 1.118 0 0 0-.19-.126 1.007 1.007 0 0 0-.204-.071 1.146 1.146 0 0 0-.225-.043 1.047 1.047 0 0 0-.209.011c-.078.009-.152.02-.228.044a1.022 1.022 0 0 0-.206.098c-.043.024-.092.033-.133.063l-3.879 2.896-1.971-1.962 5.248-5.22 9.539 9.381-2.029 2.01zm14.916-15.349c-.034-.005-.065.008-.099.006a1.124 1.124 0 0 0-.252.015 1.122 1.122 0 0 0-.192.047 1.083 1.083 0 0 0-.211.103c-.065.04-.125.082-.182.134-.028.024-.062.036-.087.064L23.654 51.862l-9.468-9.311 6.197-6.165a1.167 1.167 0 0 0-.831-1.993v-.001l-4.853.029.061-3.516 6.79.058a15.202 15.202 0 0 0 10.897 4.596c.957 0 1.89-.099 2.799-.268.087.07.174.141.283.186l5.271 2.1.723 3.596-6.568-.934zm8.84.39-.685-3.408 3.164-2.363 2.071 2.749-4.55 3.022zm8.211-6.193-1.833 1.717-2.037-2.704 1.819-1.394a1.608 1.608 0 0 1 1.188-.313c.422.059.796.28 1.05.622a1.562 1.562 0 0 1-.187 2.072z"/>
            <path fill="#212121" style="fill:var(--color2, #212121)" d="m29.755 40.565-4.688-4.667a1.165 1.165 0 0 0-1.646 0l-4.687 4.667c-.219.221-.343.517-.343.827s.122.608.343.827l4.687 4.667c.227.226.526.339.824.339s.596-.113.823-.339l4.688-4.667a1.168 1.168 0 0 0 0-1.654zm-5.511 3.848-3.033-3.021 3.033-3.021 3.034 3.021-3.034 3.021zM37.547 11.092l-.563 2.266c.155.039 3.801.988 3.801 4.701h2.333c0-4.413-3.644-6.487-5.571-6.966zM43.118 20.392h-2.333v2.333h2.333v-2.333z"/>
        </symbol>
        <symbol id="icon-diagram" viewBox="0 0 70 70">
            <path fill="#2196f3" style="fill:var(--color1, #2196f3)" d="M32.65 32.735h2.332V43.23H32.65V32.735zM41.978 37.399h2.332v5.83h-2.332v-5.83zM23.321 40.898h2.332v2.332h-2.332v-2.332zM16.325 39.731h2.332v3.498h-2.332v-3.498z"/>
            <path fill="#212121" style="fill:var(--color2, #212121)" d="M3.498 61.886h55.971a3.498 3.498 0 0 0 3.498-3.498v-4.664a3.498 3.498 0 0 0-3.498-3.498h-1.166V21.147l6.623-6.274a3.517 3.517 0 0 0 4.07-5.616 3.52 3.52 0 0 0-5.704 3.947l-4.991 4.731v-2.69a3.498 3.498 0 0 0-3.498-3.498H8.161a3.498 3.498 0 0 0-3.498 3.498v34.982H3.497a3.498 3.498 0 0 0-3.498 3.498v4.664a3.498 3.498 0 0 0 3.498 3.498zM66.465 10.58a1.166 1.166 0 1 1 0 2.332 1.166 1.166 0 0 1 0-2.332zM6.996 15.244c0-.644.522-1.166 1.166-1.166h46.642c.644 0 1.166.522 1.166 1.166v4.897l-2.332 2.216v-4.781c0-.644-.522-1.166-1.166-1.166H10.494c-.644 0-1.166.522-1.166 1.166v29.151c0 .644.522 1.166 1.166 1.166h41.978c.644 0 1.166-.522 1.166-1.166V25.564l2.332-2.21v26.87H6.996V15.242zm10.495 15.159a3.496 3.496 0 0 0-1.795 6.506 3.499 3.499 0 0 0 4.218-.494l4.053 2.034a1.166 1.166 0 0 0 1.392-.268l8.616-9.693 8.47 6.347c.454.34 1.089.304 1.501-.086l7.361-6.973v17.787H11.661V18.744h39.646v5.82l-8.25 7.813-8.541-6.403a1.167 1.167 0 0 0-1.571.158L24.21 35.96l-3.265-1.633a3.16 3.16 0 0 0 .044-.423 3.498 3.498 0 0 0-3.498-3.498zm1.166 3.498a1.166 1.166 0 1 1-2.332 0 1.166 1.166 0 0 1 2.332 0zm6.996 18.657h11.661v1.166c0 .644-.522 1.166-1.166 1.166H26.82a1.166 1.166 0 0 1-1.166-1.166v-1.166zM2.332 53.724c0-.644.522-1.166 1.166-1.166h19.823v1.166a3.498 3.498 0 0 0 3.498 3.498h9.328a3.498 3.498 0 0 0 3.498-3.498v-1.166h19.823c.644 0 1.166.522 1.166 1.166v4.664c0 .644-.522 1.166-1.166 1.166H3.497a1.166 1.166 0 0 1-1.166-1.166v-4.664z"/>
        </symbol>
        <symbol id="icon-clock" viewBox="0 0 70 70">
            <path fill="#212121" style="fill:var(--color2, #212121)" d="M68.461 33.471C68.457 14.981 53.465-.004 34.975 0S1.5 14.996 1.504 33.486A33.478 33.478 0 0 0 24.8 65.371c.132.042.27.063.409.062.264 0 .522-.071.749-.205.295-.175.516-.452.619-.78l8.455-26.797a4.185 4.185 0 0 0-.043-8.369 4.132 4.132 0 0 0-1.794.419L22.026 18.53a1.395 1.395 0 0 0-1.972 1.973l11.163 11.176a4.104 4.104 0 0 0 1.173 5.051l-8.056 25.534C8.414 56.4.262 38.74 6.126 22.82S29.65-1.252 45.57 4.612s24.072 23.525 18.208 39.444a30.722 30.722 0 0 1-16.323 17.442l-.871-4.1a1.395 1.395 0 0 0-2.293-.752l-8.393 7.493a1.394 1.394 0 0 0 .505 2.372l10.716 3.42a1.394 1.394 0 0 0 1.791-1.619l-.856-4.023a33.369 33.369 0 0 0 20.407-30.82zm-33.478-1.394a1.396 1.396 0 1 1-.001 2.791 1.396 1.396 0 0 1 .001-2.791zm4.594 32.515 4.778-4.262 1.319 6.213-6.096-1.951z"/>
            <path fill="#2196f3" style="fill:var(--color1, #2196f3)" d="M33.588 6.967v2.79a1.394 1.394 0 1 0 2.79 0v-2.79a1.396 1.396 0 0 0-2.79 0zM8.479 32.076a1.395 1.395 0 1 0 0 2.79h2.79a1.394 1.394 0 1 0 0-2.79h-2.79zM61.487 34.866a1.394 1.394 0 1 0 0-2.79h-2.79a1.396 1.396 0 0 0 0 2.79h2.79z"/>
        </symbol>
        <symbol id="icon-antenna" viewBox="0 0 70 70">
            <path fill="#212121" style="fill:var(--color2, #212121)" d="M67.316 48.338 48.847 29.733l2.05-10.096a4.64 4.64 0 0 0 1.659.318h.014a4.722 4.722 0 1 0-4.394-3.139l-10.85 1.324L19.628.349a1.163 1.163 0 0 0-.824-.35c-.306.002-.6.124-.817.339l-3.309 3.29a1.168 1.168 0 0 0 0 1.65l1.78 1.806a32.688 32.688 0 0 0 5.511 38.638c.093.089.202.162.32.213a6.768 6.768 0 0 0-.114 1.197v13.533h-14a5.84 5.84 0 0 0-5.833 5.833v2.333c0 .644.522 1.167 1.167 1.167h53.667c.644 0 1.167-.522 1.167-1.167v-2.333a5.84 5.84 0 0 0-5.833-5.833h-14v-5.998c2.193.46 4.428.695 6.669.7a32.485 32.485 0 0 0 15.4-3.901l1.79 1.8c.217.221.514.347.824.35.306-.002.6-.124.817-.339l3.309-3.29a1.168 1.168 0 0 0 0-1.65zM50.925 13.635a2.333 2.333 0 1 1 1.645 3.988h-.007a2.333 2.333 0 0 1-1.633-3.987h-.005zm-2.747 7.666-1.309 6.443-2.571-2.587 3.88-3.857zm-1.325-1.973-4.2 4.176-3.249-3.267 7.449-.909zM52.509 63a3.5 3.5 0 0 1 3.5 3.5v1.167H4.676V66.5a3.5 3.5 0 0 1 3.5-3.5h44.333zm-16.333-4.667v2.333H24.509v-2.333h11.667zM24.509 56v-8.867c0-2.83 2.617-5.133 5.833-5.133s5.833 2.303 5.833 5.133V56H24.508zm14-3.71v-5.157c0-4.117-3.663-7.467-8.167-7.467a8.31 8.31 0 0 0-7.177 3.907A30.339 30.339 0 0 1 18.181 8.82l40.692 40.925a30.233 30.233 0 0 1-20.363 2.544zm24.695-1.496L17.142 4.461l1.651-1.645 17.358 17.456c.008 0 .013.015.021.021L64.86 49.149l-1.656 1.645z"/>
            <path fill="#2196f3" style="fill:var(--color1, #2196f3)" d="M30.353 44.333h-.011a3.5 3.5 0 1 0-.01 7h.011a3.5 3.5 0 1 0 .01-7zm.816 4.328a1.165 1.165 0 0 1-1.988-.834 1.167 1.167 0 0 1 1.161-1.16 1.166 1.166 0 0 1 .816 1.994h.011z"/>
        </symbol>
        <symbol id="icon-Logo6" viewBox="0 0 57 32">
            <path d="M28.493 14.618c-0.236-0.315-0.349-0.686-0.323-1.061v-1.538c0-0.471 0.107-0.83 0.321-1.075s0.581-0.367 1.102-0.366c0.489 0 0.836 0.104 1.042 0.313 0.224 0.266 0.333 0.592 0.308 0.92v0.361h-0.875v-0.366c0.003-0.12-0.005-0.24-0.025-0.358-0.013-0.081-0.057-0.156-0.125-0.213-0.090-0.061-0.203-0.091-0.317-0.083-0.12-0.008-0.239 0.024-0.333 0.088-0.076 0.063-0.127 0.145-0.145 0.235-0.025 0.126-0.037 0.253-0.034 0.38v1.866c-0.014 0.18 0.025 0.36 0.112 0.524 0.044 0.055 0.104 0.099 0.175 0.127s0.149 0.038 0.226 0.029c0.112 0.008 0.223-0.022 0.31-0.084 0.071-0.061 0.117-0.141 0.13-0.227 0.020-0.124 0.030-0.249 0.027-0.374v-0.379h0.875v0.346c0.025 0.342-0.082 0.682-0.303 0.967-0.201 0.228-0.544 0.343-1.047 0.343s-0.884-0.122-1.1-0.375z"></path>
            <path d="M32.137 14.633c-0.221-0.239-0.332-0.588-0.332-1.050v-1.617c0-0.457 0.11-0.802 0.332-1.037s0.591-0.351 1.109-0.35c0.515 0 0.882 0.117 1.103 0.35 0.221 0.235 0.333 0.58 0.333 1.037v1.617c0 0.457-0.112 0.807-0.337 1.048s-0.591 0.361-1.1 0.361c-0.509 0-0.886-0.122-1.109-0.36zM33.654 14.245c0.079-0.15 0.115-0.314 0.105-0.479v-1.98c0.010-0.161-0.025-0.322-0.103-0.469-0.044-0.057-0.106-0.101-0.179-0.129s-0.152-0.037-0.231-0.027c-0.079-0.009-0.159 0-0.231 0.028s-0.135 0.072-0.18 0.129c-0.080 0.146-0.116 0.308-0.105 0.469v1.99c-0.011 0.165 0.025 0.329 0.105 0.479 0.051 0.050 0.114 0.091 0.185 0.119s0.147 0.042 0.225 0.042c0.078 0 0.154-0.014 0.225-0.042s0.134-0.068 0.185-0.119v-0.009z"></path>
            <path d="M35.735 10.626h0.942l0.708 2.984 0.725-2.984h0.917l0.092 4.308h-0.678l-0.072-2.994-0.699 2.994h-0.544l-0.725-3.005-0.067 3.005h-0.685l0.085-4.308z"></path>
            <path d="M40.176 10.626h1.468c0.846 0 1.268 0.408 1.268 1.223 0 0.781-0.445 1.171-1.335 1.17h-0.5v1.915h-0.906l0.005-4.308zM41.43 12.467c0.090 0.010 0.18 0.003 0.266-0.021s0.165-0.063 0.232-0.115c0.104-0.146 0.15-0.316 0.13-0.486 0.005-0.131-0.010-0.263-0.044-0.391-0.013-0.043-0.036-0.083-0.067-0.118s-0.070-0.065-0.114-0.087c-0.126-0.052-0.265-0.076-0.404-0.069h-0.352v1.287h0.352z"></path>
            <path d="M44.218 10.626h0.973l0.998 4.308h-0.844l-0.197-0.993h-0.868l-0.203 0.993h-0.857l0.998-4.308zM45.050 13.441l-0.339-1.808-0.339 1.808h0.678z"></path>
            <path d="M46.996 10.626h0.634l1.214 2.457v-2.457h0.752v4.308h-0.603l-1.221-2.565v2.565h-0.777l0.002-4.308z"></path>
            <path d="M51.357 13.291l-1.009-2.659h0.85l0.616 1.708 0.578-1.708h0.832l-0.997 2.659v1.642h-0.87v-1.642z"></path>
            <path d="M29.892 16.817v0.225h-0.739v1.75h-0.31v-1.75h-0.743v-0.225h1.792z"></path>
            <path d="M32.209 18.793h-0.239c-0.024 0.001-0.048-0.005-0.067-0.019-0.018-0.011-0.032-0.027-0.040-0.045l-0.214-0.469h-1.026l-0.214 0.469c-0.006 0.020-0.017 0.038-0.033 0.053-0.019 0.013-0.043 0.020-0.067 0.019h-0.239l0.906-1.976h0.315l0.917 1.968zM30.709 18.059h0.855l-0.362-0.804c-0.027-0.061-0.049-0.123-0.067-0.186-0.013 0.038-0.024 0.073-0.034 0.105l-0.033 0.083-0.359 0.802z"></path>
            <path d="M33.771 18.599c0.057 0.003 0.114 0.003 0.17 0 0.049-0.004 0.097-0.012 0.145-0.023 0.044-0.009 0.088-0.021 0.13-0.036 0.040-0.014 0.080-0.031 0.121-0.048v-0.444h-0.362c-0.009 0-0.018-0.001-0.026-0.003s-0.016-0.007-0.023-0.012c-0.006-0.004-0.011-0.010-0.014-0.016s-0.005-0.013-0.004-0.020v-0.152h0.703v0.757c-0.057 0.035-0.118 0.067-0.181 0.094-0.065 0.028-0.132 0.050-0.201 0.067-0.074 0.019-0.15 0.032-0.227 0.041-0.088 0.008-0.176 0.013-0.264 0.012-0.156 0.001-0.311-0.024-0.457-0.073-0.136-0.047-0.259-0.117-0.362-0.206-0.101-0.090-0.18-0.196-0.234-0.313-0.057-0.131-0.085-0.27-0.083-0.41-0.002-0.141 0.026-0.281 0.082-0.413 0.052-0.117 0.132-0.224 0.234-0.313 0.103-0.089 0.227-0.159 0.362-0.205 0.155-0.050 0.32-0.075 0.486-0.074 0.084-0 0.169 0.006 0.252 0.017 0.074 0.010 0.146 0.027 0.216 0.050 0.063 0.021 0.124 0.047 0.181 0.078 0.056 0.031 0.108 0.065 0.158 0.103l-0.087 0.122c-0.007 0.011-0.017 0.021-0.029 0.027s-0.027 0.010-0.041 0.010c-0.020-0.001-0.040-0.006-0.056-0.016-0.027-0.013-0.056-0.028-0.089-0.047-0.038-0.021-0.079-0.039-0.121-0.053-0.054-0.019-0.11-0.033-0.167-0.044-0.076-0.012-0.153-0.018-0.23-0.017-0.12-0.001-0.238 0.017-0.35 0.055-0.101 0.035-0.192 0.088-0.266 0.156-0.075 0.071-0.132 0.155-0.169 0.246-0.081 0.214-0.081 0.445 0 0.659 0.040 0.093 0.101 0.178 0.181 0.249 0.074 0.068 0.164 0.121 0.265 0.156 0.115 0.034 0.237 0.047 0.359 0.039z"></path>
            <path d="M36.659 18.567h0.989v0.225h-1.292v-1.976h0.31l-0.007 1.75z"></path>
            <path d="M38.678 18.792h-0.31v-1.976h0.31v1.976z"></path>
            <path d="M39.83 16.826c0.018 0.009 0.034 0.021 0.047 0.036l1.324 1.489c-0.002-0.023-0.002-0.047 0-0.070 0-0.022 0-0.044 0-0.064v-1.408h0.27v1.984h-0.156c-0.023 0.002-0.046-0.002-0.067-0.011-0.019-0.010-0.035-0.023-0.049-0.038l-1.323-1.488c0 0.023 0 0.045 0 0.067s0 0.042 0 0.061v1.408h-0.259v-1.976h0.161c0.017 0 0.035 0.003 0.051 0.009z"></path>
            <path d="M43.753 16.817v0.217h-1.098v0.652h0.89v0.21h-0.89v0.674h1.098v0.217h-1.417v-1.971h1.417z"></path>
            <path d="M11.286 4.616l13.757 3.372v11.818l-13.757-3.371v-11.819zM10.404 3.609v13.401l15.52 3.806v-13.399l-15.52-3.807z"></path>
            <path d="M18.722 27.036l-15.522-3.809v-13.399l15.522 3.807v13.401z"></path>
            <path d="M10.661 4.465l13.578 3.33-5.774 4.987-13.58-3.332 5.776-4.985zM10.404 3.609l-7.204 6.219 15.522 3.807 7.202-6.219-15.52-3.807z"></path>
            <path d="M19.595 26.282l6.329-5.465-6.329-1.553v7.018z"></path>
        </symbol>
        <symbol id="icon-Logo5" viewBox="0 0 57 32">
            <path d="M17.371 25.278l-0.844-1.291h-0.317v1.291h-0.726v-3.302h1.374c0.346-0.022 0.689 0.078 0.957 0.281 0.192 0.179 0.308 0.415 0.327 0.666s-0.061 0.499-0.224 0.7c-0.17 0.178-0.401 0.296-0.655 0.336l0.898 1.32h-0.789zM16.21 23.538h0.594c0.412 0 0.618-0.167 0.618-0.5 0.004-0.068-0.007-0.136-0.033-0.2s-0.066-0.122-0.118-0.171c-0.13-0.099-0.298-0.147-0.467-0.134h-0.601l0.007 1.005z"></path>
            <path d="M14.27 23.859c0.13 0.147 0.199 0.332 0.196 0.521 0.007 0.123-0.017 0.247-0.070 0.361s-0.132 0.216-0.233 0.297c-0.252 0.175-0.565 0.26-0.881 0.24h-1.549v-3.302h1.517c0.299-0.018 0.596 0.059 0.84 0.219 0.098 0.075 0.176 0.17 0.227 0.277s0.074 0.224 0.068 0.341c0.009 0.182-0.054 0.361-0.176 0.505-0.118 0.131-0.28 0.222-0.462 0.258 0.205 0.034 0.391 0.134 0.523 0.282zM12.454 23.36h0.648c0.147 0.010 0.294-0.029 0.412-0.11 0.049-0.040 0.087-0.090 0.111-0.146s0.034-0.116 0.028-0.176c0.005-0.060-0.005-0.12-0.029-0.175s-0.061-0.106-0.108-0.147c-0.122-0.083-0.273-0.123-0.425-0.111h-0.638v0.866zM13.578 24.627c0.052-0.041 0.093-0.093 0.12-0.151s0.038-0.121 0.034-0.184c0.004-0.064-0.008-0.127-0.035-0.186s-0.069-0.111-0.121-0.153c-0.127-0.086-0.283-0.128-0.44-0.119h-0.68v0.908h0.689c0.155 0.008 0.309-0.032 0.435-0.114z"></path>
            <path d="M21.339 24.614h-1.446l-0.255 0.665h-0.761l1.328-3.265h0.823l1.323 3.265h-0.761l-0.25-0.665zM21.145 24.114l-0.529-1.394-0.529 1.394h1.057z"></path>
            <path d="M26.305 25.278h-0.721l-1.616-2.245v2.245h-0.719v-3.302h0.719l1.616 2.258v-2.258h0.721v3.302z"></path>
            <path d="M30.417 24.488c-0.149 0.249-0.376 0.452-0.652 0.582-0.314 0.145-0.662 0.217-1.013 0.208h-1.283v-3.302h1.283c0.351-0.008 0.698 0.061 1.013 0.203 0.276 0.127 0.503 0.328 0.652 0.576 0.148 0.269 0.226 0.565 0.226 0.866s-0.077 0.598-0.226 0.866zM29.593 24.409c0.206-0.219 0.319-0.499 0.319-0.788s-0.113-0.569-0.319-0.788c-0.249-0.199-0.573-0.3-0.902-0.281h-0.5v2.137h0.5c0.329 0.019 0.654-0.082 0.902-0.281z"></path>
            <path d="M21.79 3.609c0 0 9.301 3.215 9.103 7.867v7.869c0 0-9.294-3.217-9.1-7.869l-0.004-7.867z"></path>
            <path d="M39.179 17.503c1.757-1.107 3.788-1.792 5.909-1.994v-2.463c-2.444 0.862-4.517 2.426-5.909 4.457z"></path>
            <path d="M38.124 18.245c1.438-2.651 3.93-4.696 6.964-5.715v-7.098c0 0-13.245 4.58-12.965 11.205v11.203c0 0 0.59-0.205 1.519-0.589 0-0.358 0-0.719 0.042-1.082 0.274-3.076 1.871-5.926 4.44-7.924z"></path>
            <path d="M36.864 22.407c0.070-0.777 0.225-1.546 0.463-2.294-1.599 1.725-2.568 3.866-2.77 6.122-0.019 0.213-0.030 0.426-0.035 0.645 0.752-0.331 1.628-0.744 2.548-1.229-0.235-1.067-0.304-2.159-0.206-3.244z"></path>
            <path d="M37.391 22.447c-0.088 0.982-0.033 1.969 0.164 2.938 3.619-1.983 7.685-5.046 7.528-8.748v-0.323c-2.585 0.265-5.004 1.3-6.885 2.946-0.44 1.020-0.712 2.094-0.807 3.188z"></path>
        </symbol>
        <symbol id="icon-Logo4" viewBox="0 0 57 32">
            <path d="M12.878 11.255h-0.002c-1.279 0-2.316 0.921-2.316 2.058v0.001c0 1.137 1.037 2.058 2.316 2.058h0.002c1.279 0 2.316-0.921 2.316-2.058v-0.001c0-1.137-1.037-2.058-2.316-2.058z"></path>
            <path d="M29.971 10.597c-0.004-1.579-0.711-3.092-1.967-4.208s-2.958-1.745-4.735-1.749v0c-1.777 0.003-3.48 0.631-4.737 1.748s-1.964 2.63-1.968 4.209v8.706c0 0 13.405-1.327 13.406-8.704v-0.001z"></path>
            <path d="M5.867 22.16c0.003 1.098 0.496 2.151 1.369 2.928s2.058 1.215 3.294 1.218c1.236-0.003 2.42-0.441 3.294-1.218s1.366-1.829 1.37-2.927v-6.057c0 0-9.327 0.924-9.327 6.056zM10.53 23.245c-0.242 0-0.478-0.064-0.678-0.183s-0.357-0.289-0.45-0.487c-0.092-0.198-0.117-0.417-0.069-0.627s0.163-0.404 0.334-0.556c0.171-0.152 0.388-0.255 0.625-0.297s0.482-0.020 0.706 0.062c0.223 0.082 0.414 0.221 0.548 0.4s0.206 0.388 0.206 0.603c0.001 0.143-0.031 0.284-0.092 0.417s-0.151 0.252-0.264 0.354c-0.114 0.101-0.248 0.181-0.397 0.236s-0.308 0.083-0.468 0.083v-0.004z"></path>
            <path d="M19.956 22.647h-0.9v0.93h-0.469v-2.275h1.481v0.38h-1.012v0.588h0.9v0.378zM22.209 22.491c0 0.224-0.040 0.42-0.119 0.589s-0.193 0.299-0.341 0.391c-0.147 0.092-0.316 0.137-0.506 0.137-0.189 0-0.357-0.045-0.505-0.136s-0.262-0.22-0.344-0.387c-0.081-0.169-0.122-0.363-0.123-0.581v-0.112c0-0.224 0.040-0.421 0.12-0.591 0.081-0.171 0.195-0.302 0.342-0.392 0.148-0.092 0.317-0.137 0.506-0.137s0.358 0.046 0.505 0.137c0.148 0.091 0.262 0.221 0.342 0.392 0.081 0.17 0.122 0.366 0.122 0.589v0.102zM21.734 22.388c0-0.238-0.043-0.42-0.128-0.544s-0.207-0.186-0.366-0.186c-0.157 0-0.279 0.061-0.364 0.184-0.085 0.122-0.129 0.301-0.13 0.538v0.111c0 0.232 0.043 0.412 0.128 0.541s0.208 0.192 0.369 0.192c0.157 0 0.278-0.061 0.363-0.184 0.084-0.124 0.127-0.304 0.128-0.541v-0.111zM23.73 22.98c0-0.089-0.031-0.156-0.094-0.203-0.063-0.048-0.175-0.098-0.337-0.15-0.163-0.053-0.291-0.105-0.386-0.156-0.258-0.14-0.387-0.328-0.387-0.564 0-0.123 0.034-0.232 0.103-0.328 0.070-0.097 0.169-0.172 0.298-0.227 0.13-0.054 0.276-0.081 0.438-0.081 0.163 0 0.307 0.030 0.434 0.089 0.127 0.058 0.226 0.141 0.295 0.248s0.106 0.229 0.106 0.366h-0.469c0-0.104-0.033-0.185-0.098-0.242s-0.158-0.087-0.277-0.087c-0.115 0-0.204 0.024-0.267 0.073-0.064 0.048-0.095 0.111-0.095 0.191 0 0.074 0.037 0.136 0.111 0.186 0.075 0.050 0.185 0.097 0.33 0.141 0.267 0.080 0.461 0.18 0.583 0.298s0.183 0.267 0.183 0.444c0 0.197-0.075 0.352-0.223 0.464-0.149 0.111-0.349 0.167-0.602 0.167-0.175 0-0.334-0.032-0.478-0.095-0.144-0.065-0.254-0.153-0.33-0.264s-0.113-0.241-0.113-0.388h0.47c0 0.251 0.15 0.377 0.45 0.377 0.111 0 0.198-0.022 0.261-0.067 0.063-0.046 0.094-0.109 0.094-0.191zM26.231 21.682h-0.697v1.895h-0.469v-1.895h-0.687v-0.38h1.853v0.38zM27.869 22.591h-0.9v0.609h1.056v0.377h-1.525v-2.275h1.522v0.38h-1.053v0.542h0.9v0.367zM29.142 22.744h-0.373v0.833h-0.469v-2.275h0.845c0.269 0 0.476 0.060 0.622 0.18s0.219 0.289 0.219 0.508c0 0.155-0.034 0.285-0.102 0.389-0.067 0.103-0.168 0.185-0.305 0.247l0.492 0.93v0.022h-0.503l-0.427-0.833zM28.769 22.365h0.378c0.118 0 0.209-0.030 0.273-0.089 0.065-0.060 0.097-0.143 0.097-0.248 0-0.107-0.031-0.192-0.092-0.253-0.060-0.061-0.154-0.092-0.28-0.092h-0.377v0.683zM31.609 22.775v0.802h-0.469v-2.275h0.887c0.171 0 0.321 0.031 0.45 0.094s0.23 0.152 0.3 0.267c0.070 0.115 0.105 0.245 0.105 0.392 0 0.223-0.077 0.399-0.23 0.528-0.152 0.128-0.363 0.192-0.633 0.192h-0.411zM31.609 22.396h0.419c0.124 0 0.218-0.029 0.283-0.088 0.066-0.058 0.098-0.142 0.098-0.25 0-0.111-0.033-0.202-0.098-0.27s-0.156-0.104-0.272-0.106h-0.43v0.714zM34.575 22.591h-0.9v0.609h1.056v0.377h-1.525v-2.275h1.522v0.38h-1.053v0.542h0.9v0.367zM36.75 21.682h-0.697v1.895h-0.469v-1.895h-0.688v-0.38h1.853v0.38zM38.387 22.591h-0.9v0.609h1.056v0.377h-1.525v-2.275h1.522v0.38h-1.053v0.542h0.9v0.367zM39.661 22.744h-0.373v0.833h-0.469v-2.275h0.845c0.269 0 0.476 0.060 0.622 0.18s0.219 0.289 0.219 0.508c0 0.155-0.034 0.285-0.102 0.389-0.067 0.103-0.168 0.185-0.305 0.247l0.492 0.93v0.022h-0.503l-0.427-0.833zM39.287 22.365h0.378c0.118 0 0.209-0.030 0.273-0.089 0.065-0.060 0.097-0.143 0.097-0.248 0-0.107-0.031-0.192-0.092-0.253-0.060-0.061-0.154-0.092-0.28-0.092h-0.377v0.683zM42.042 22.98c0-0.089-0.031-0.156-0.094-0.203-0.063-0.048-0.175-0.098-0.337-0.15-0.163-0.053-0.291-0.105-0.386-0.156-0.258-0.14-0.388-0.328-0.388-0.564 0-0.123 0.034-0.232 0.103-0.328 0.070-0.097 0.169-0.172 0.298-0.227 0.13-0.054 0.276-0.081 0.438-0.081 0.163 0 0.307 0.030 0.434 0.089 0.127 0.058 0.226 0.141 0.295 0.248 0.071 0.107 0.106 0.229 0.106 0.366h-0.469c0-0.104-0.033-0.185-0.098-0.242s-0.158-0.087-0.277-0.087c-0.115 0-0.204 0.024-0.267 0.073-0.064 0.048-0.095 0.111-0.095 0.191 0 0.074 0.037 0.136 0.111 0.186 0.075 0.050 0.185 0.097 0.33 0.141 0.267 0.080 0.461 0.18 0.583 0.298s0.183 0.267 0.183 0.444c0 0.197-0.074 0.352-0.223 0.464-0.149 0.111-0.349 0.167-0.602 0.167-0.175 0-0.334-0.032-0.478-0.095-0.144-0.065-0.254-0.153-0.33-0.264-0.075-0.111-0.112-0.241-0.112-0.388h0.47c0 0.251 0.15 0.377 0.45 0.377 0.111 0 0.198-0.022 0.261-0.067 0.063-0.046 0.094-0.109 0.094-0.191z"></path>
        </symbol>
        <symbol id="icon-Logo3" viewBox="0 0 57 32">
            <path d="M19.417 26.187c0.008 0 0.017 0.002 0.025 0.005s0.015 0.007 0.020 0.013l0.116 0.111c-0.090 0.090-0.202 0.162-0.327 0.211-0.147 0.053-0.305 0.079-0.464 0.076-0.149 0.003-0.298-0.021-0.436-0.071-0.125-0.045-0.237-0.113-0.329-0.2-0.094-0.089-0.166-0.194-0.212-0.308-0.051-0.127-0.076-0.261-0.074-0.396-0.002-0.135 0.025-0.27 0.080-0.397 0.051-0.115 0.127-0.22 0.225-0.308 0.099-0.087 0.218-0.155 0.349-0.201 0.143-0.048 0.296-0.072 0.449-0.071 0.143-0.003 0.285 0.019 0.417 0.064 0.115 0.043 0.221 0.104 0.313 0.178l-0.097 0.119c-0.007 0.008-0.015 0.016-0.025 0.021-0.011 0.007-0.025 0.010-0.039 0.009-0.015-0.001-0.030-0.005-0.042-0.013l-0.052-0.032-0.073-0.040c-0.031-0.015-0.064-0.028-0.097-0.039-0.043-0.013-0.087-0.024-0.132-0.032-0.057-0.009-0.115-0.013-0.173-0.013-0.111-0.001-0.22 0.017-0.323 0.053-0.096 0.034-0.182 0.084-0.253 0.149-0.073 0.069-0.128 0.15-0.164 0.238-0.041 0.101-0.061 0.207-0.060 0.313-0.002 0.108 0.018 0.216 0.060 0.318 0.035 0.087 0.090 0.167 0.161 0.236 0.067 0.064 0.149 0.114 0.241 0.147 0.095 0.034 0.197 0.051 0.3 0.050 0.059 0.001 0.119-0.003 0.177-0.010 0.096-0.010 0.188-0.039 0.269-0.085 0.041-0.023 0.079-0.049 0.115-0.078 0.015-0.012 0.035-0.020 0.055-0.020z"></path>
            <path d="M22.776 25.629c0.002 0.134-0.025 0.267-0.078 0.393-0.047 0.114-0.122 0.218-0.219 0.305s-0.214 0.155-0.344 0.2c-0.285 0.094-0.599 0.094-0.884 0-0.129-0.046-0.245-0.114-0.342-0.201-0.097-0.089-0.172-0.194-0.221-0.308-0.105-0.255-0.105-0.533 0-0.787 0.050-0.115 0.125-0.22 0.221-0.31 0.097-0.084 0.214-0.15 0.342-0.193 0.284-0.096 0.6-0.096 0.884 0 0.129 0.046 0.246 0.114 0.343 0.201 0.096 0.088 0.17 0.191 0.22 0.304 0.054 0.127 0.080 0.261 0.078 0.395zM22.47 25.629c0.002-0.107-0.016-0.214-0.055-0.316-0.033-0.087-0.086-0.168-0.156-0.236-0.068-0.065-0.152-0.116-0.246-0.149-0.207-0.069-0.436-0.069-0.643 0-0.094 0.033-0.178 0.084-0.246 0.149-0.071 0.068-0.125 0.149-0.157 0.236-0.074 0.206-0.074 0.426 0 0.632 0.033 0.087 0.086 0.168 0.157 0.236 0.068 0.065 0.152 0.115 0.246 0.148 0.207 0.067 0.435 0.067 0.643 0 0.094-0.033 0.177-0.083 0.246-0.148 0.070-0.069 0.123-0.149 0.156-0.236 0.039-0.102 0.058-0.209 0.055-0.316z"></path>
            <path d="M25.067 25.96l0.031 0.071c0.012-0.025 0.022-0.048 0.033-0.071s0.024-0.047 0.038-0.070l0.743-1.174c0.015-0.020 0.028-0.033 0.042-0.037 0.020-0.005 0.040-0.007 0.061-0.006h0.22v1.909h-0.26v-1.404c0-0.018 0-0.038 0-0.059-0.001-0.022-0.001-0.044 0-0.066l-0.747 1.19c-0.009 0.018-0.025 0.033-0.044 0.043s-0.041 0.016-0.064 0.016h-0.042c-0.023 0-0.045-0.005-0.064-0.016s-0.034-0.026-0.044-0.044l-0.769-1.198c0 0.023 0 0.046 0 0.068s0 0.043 0 0.061v1.404h-0.252v-1.905h0.22c0.021-0.001 0.041 0.001 0.061 0.006 0.018 0.008 0.032 0.021 0.041 0.037l0.759 1.175c0.015 0.022 0.028 0.045 0.038 0.068z"></path>
            <path d="M27.864 25.865v0.715h-0.291v-1.906h0.649c0.122-0.002 0.244 0.012 0.362 0.042 0.094 0.023 0.181 0.064 0.256 0.119 0.065 0.052 0.114 0.116 0.145 0.187 0.034 0.078 0.051 0.161 0.049 0.244 0.001 0.084-0.017 0.166-0.054 0.244-0.035 0.073-0.089 0.138-0.157 0.191-0.075 0.057-0.162 0.1-0.257 0.126-0.113 0.031-0.232 0.046-0.35 0.044l-0.352-0.005zM27.864 25.66h0.352c0.076 0.001 0.153-0.009 0.225-0.029 0.060-0.018 0.115-0.046 0.163-0.082 0.044-0.035 0.078-0.078 0.099-0.126 0.024-0.051 0.036-0.105 0.035-0.16 0.003-0.053-0.007-0.106-0.029-0.155s-0.057-0.094-0.102-0.13c-0.111-0.075-0.251-0.112-0.391-0.102h-0.352v0.786z"></path>
            <path d="M31.772 26.583h-0.23c-0.023 0.001-0.046-0.006-0.064-0.018-0.016-0.012-0.029-0.027-0.038-0.044l-0.198-0.461h-0.993l-0.205 0.461c-0.008 0.017-0.020 0.032-0.036 0.043-0.018 0.013-0.042 0.020-0.065 0.019h-0.23l0.872-1.909h0.302l0.884 1.909zM30.333 25.874h0.82l-0.346-0.777c-0.026-0.058-0.048-0.118-0.065-0.179l-0.033 0.1c-0.010 0.030-0.022 0.058-0.032 0.081l-0.343 0.776z"></path>
            <path d="M33.029 24.682c0.017 0.008 0.032 0.020 0.044 0.034l1.272 1.439c0-0.023 0-0.046 0-0.067s0-0.043 0-0.063v-1.352h0.26v1.909h-0.145c-0.021 0.001-0.041-0.003-0.060-0.011-0.018-0.009-0.034-0.021-0.047-0.035l-1.271-1.438c0.001 0.022 0.001 0.044 0 0.066 0 0.021 0 0.040 0 0.058v1.361h-0.26v-1.909h0.154c0.018-0 0.036 0.003 0.052 0.009z"></path>
            <path d="M36.748 25.823v0.758h-0.291v-0.758l-0.804-1.15h0.26c0.022-0.001 0.045 0.005 0.063 0.016 0.016 0.012 0.029 0.027 0.039 0.043l0.503 0.742c0.020 0.032 0.038 0.061 0.052 0.088s0.026 0.054 0.036 0.081l0.038-0.082c0.014-0.030 0.031-0.059 0.049-0.087l0.496-0.747c0.010-0.015 0.023-0.028 0.038-0.040 0.017-0.013 0.040-0.020 0.063-0.019h0.263l-0.806 1.155z"></path>
            <path d="M24.923 21.47c0.127 0.014 0.255 0.025 0.384 0.035 1.962-0.763 3.622-2.011 4.772-3.588s1.74-3.415 1.695-5.282l-2.162-1.879c0.44 1.988 0.234 4.043-0.594 5.935s-2.246 3.547-4.094 4.779z"></path>
            <path d="M24.151 21.383l0.058 0.010c1.975-1.228 3.481-2.942 4.323-4.921s0.981-4.133 0.399-6.181l-3.080-2.676c1.246 2.2 1.747 4.661 1.446 7.098s-1.393 4.75-3.147 6.67z"></path>
            <path d="M34.596 14.841c-0.523 2.051-1.794 3.902-3.624 5.276-0.534 0.404-1.111 0.763-1.722 1.074 1.49-0.38 2.859-1.053 4.003-1.966s2.030-2.042 2.592-3.3l-1.249-1.084z"></path>
            <path d="M34.106 14.539l-1.778-1.545c-0.034 1.762-0.61 3.483-1.669 4.986s-2.562 2.731-4.352 3.559h0.009c0.399-0 0.798-0.021 1.194-0.062 1.673-0.593 3.151-1.538 4.303-2.748s1.94-2.65 2.295-4.189z"></path>
            <path d="M24.409 6.486l-2.122-1.846c-1.897 0.637-3.528 1.756-4.68 3.212s-1.772 3.179-1.778 4.946v0c0.007 1.952 0.763 3.846 2.149 5.383s3.322 2.628 5.501 3.101c1.946-2.060 3.085-4.605 3.252-7.266s-0.647-5.299-2.323-7.53z"></path>
            <path d="M39.008 14.255c-0.008-2.316-1.070-4.535-2.955-6.173s-4.439-2.561-7.105-2.567c-1.232-0.001-2.453 0.196-3.602 0.582l12.99 11.286c0.445-0.998 0.673-2.058 0.672-3.128z"></path>
        </symbol>
        <symbol id="icon-Logo2" viewBox="0 0 57 32">
            <path d="M26.727 3.165h-0.073c-0.112-0.007-0.224-0.010-0.336-0.012v0h-0.243c-0.212 0-0.428 0.005-0.642 0.016-0.016-0.001-0.032-0.001-0.049 0-1.944 0.11-3.848 0.596-5.609 1.431l-0.231 0.111v11.809l0.54-0.183c0.474-0.163 0.978-0.309 1.5-0.445 1.411-0.362 2.861-0.555 4.317-0.574v1.551c-0.193 0.001-0.38 0.007-0.568 0.016h-0.045c-1.121 0.061-2.233 0.232-3.322 0.51-1.378 0.345-2.708 0.863-3.957 1.542v-15.145c1.298-0.757 2.695-1.325 4.151-1.688 1.278-0.33 2.593-0.5 3.913-0.504h0.228c0.273 0.007 0.538 0.019 0.788 0.038 0.658 0.046 1.31 0.15 1.95 0.311v1.527c-0.621-0.145-1.253-0.24-1.889-0.285-0.013-0.001-0.026-0.002-0.039-0.003-0.132-0.011-0.263-0.022-0.386-0.022zM29.415 4.726c0.339 0.026 0.689 0.038 1.044 0.038 1.388-0.005 2.769-0.182 4.114-0.528 1.378-0.346 2.706-0.865 3.956-1.543v14.875c-1.298 0.756-2.696 1.325-4.153 1.688-1.279 0.329-2.593 0.498-3.913 0.503-1 0.008-1.997-0.11-2.968-0.35v-14.971c0.229 0.053 0.465 0.102 0.706 0.142 0.394 0.066 0.81 0.115 1.214 0.145zM36.985 4.841l-0.54 0.182c-0.497 0.167-0.997 0.316-1.5 0.449-1.465 0.377-2.971 0.57-4.483 0.575-0.352 0-0.676-0.010-0.989-0.030l-0.43-0.028v12.148l0.37 0.033c0.343 0.030 0.696 0.045 1.052 0.045 1.191-0.005 2.377-0.159 3.531-0.457 0.95-0.238 1.874-0.57 2.759-0.991l0.231-0.111v-11.813z"></path>
            <path d="M19.060 24.113c-0.078-0.080-0.171-0.144-0.274-0.186s-0.214-0.061-0.326-0.057c-0.119-0.002-0.237 0.021-0.347 0.065-0.101 0.040-0.193 0.101-0.27 0.178s-0.135 0.17-0.174 0.271c-0.042 0.107-0.063 0.22-0.062 0.335v2.023c-0.005 0.143 0.022 0.284 0.080 0.415 0.048 0.104 0.117 0.196 0.202 0.271 0.081 0.068 0.176 0.117 0.278 0.144 0.098 0.028 0.2 0.042 0.302 0.042 0.113 0.001 0.224-0.023 0.326-0.070 0.101-0.044 0.193-0.108 0.27-0.187 0.075-0.079 0.135-0.171 0.177-0.271 0.043-0.102 0.065-0.212 0.065-0.323v-0.226h-0.529v0.18c0.002 0.062-0.009 0.123-0.031 0.18-0.017 0.043-0.043 0.082-0.077 0.114-0.033 0.026-0.070 0.046-0.111 0.058-0.036 0.012-0.073 0.018-0.111 0.019-0.047 0.006-0.095-0.002-0.139-0.021s-0.081-0.049-0.11-0.088c-0.050-0.081-0.074-0.176-0.070-0.271v-1.887c-0.003-0.105 0.019-0.208 0.065-0.302 0.027-0.043 0.066-0.077 0.112-0.098s0.097-0.030 0.147-0.024c0.046-0.002 0.091 0.008 0.132 0.028s0.077 0.049 0.104 0.086c0.059 0.078 0.090 0.173 0.088 0.271v0.175h0.524v-0.206c0.001-0.121-0.021-0.241-0.065-0.354-0.039-0.106-0.099-0.203-0.177-0.285z"></path>
            <path d="M22.202 24.090c-0.169-0.142-0.381-0.221-0.602-0.222-0.108 0-0.215 0.020-0.316 0.057-0.103 0.037-0.198 0.093-0.279 0.165-0.088 0.079-0.158 0.175-0.205 0.283-0.053 0.124-0.079 0.257-0.077 0.392v1.941c-0.004 0.137 0.023 0.272 0.077 0.397 0.048 0.104 0.118 0.197 0.205 0.271 0.081 0.075 0.176 0.133 0.279 0.171 0.101 0.037 0.208 0.056 0.316 0.057s0.215-0.020 0.316-0.057c0.105-0.038 0.202-0.096 0.286-0.171 0.084-0.076 0.152-0.168 0.2-0.271 0.054-0.125 0.081-0.261 0.077-0.397v-1.941c0.003-0.135-0.024-0.268-0.077-0.392-0.047-0.107-0.115-0.203-0.2-0.283zM21.955 26.706c0.004 0.052-0.003 0.104-0.021 0.152s-0.047 0.092-0.084 0.128c-0.070 0.059-0.158 0.091-0.249 0.091s-0.179-0.032-0.249-0.091c-0.037-0.036-0.066-0.080-0.084-0.128s-0.025-0.101-0.021-0.152v-1.941c-0.004-0.052 0.003-0.104 0.021-0.152s0.047-0.092 0.084-0.128c0.070-0.059 0.158-0.091 0.249-0.091s0.179 0.032 0.249 0.091c0.037 0.036 0.066 0.080 0.084 0.128s0.025 0.101 0.021 0.152v1.941z"></path>
            <path d="M26.329 27.573v-3.674h-0.509l-0.668 1.945h-0.009l-0.673-1.945h-0.503v3.674h0.525v-2.235h0.009l0.514 1.58h0.262l0.518-1.58h0.009v2.235h0.525z"></path>
            <path d="M29.311 24.157c-0.081-0.091-0.183-0.16-0.297-0.201-0.123-0.040-0.251-0.059-0.38-0.057h-0.78v3.674h0.523v-1.435h0.27c0.163 0.007 0.326-0.027 0.472-0.1 0.119-0.066 0.218-0.163 0.287-0.281 0.061-0.098 0.101-0.206 0.12-0.32 0.021-0.138 0.030-0.278 0.028-0.418 0.005-0.176-0.012-0.353-0.051-0.525-0.035-0.127-0.101-0.243-0.193-0.338zM29.041 25.277c-0.002 0.067-0.019 0.132-0.049 0.191-0.030 0.056-0.077 0.102-0.135 0.129-0.078 0.035-0.162 0.050-0.247 0.046h-0.239v-1.249h0.27c0.081-0.004 0.162 0.012 0.236 0.046 0.054 0.031 0.097 0.079 0.123 0.136 0.029 0.065 0.044 0.134 0.046 0.205 0 0.077 0 0.159 0 0.244s0.005 0.174 0 0.252h-0.005z"></path>
            <path d="M31.791 23.899h-0.429l-0.809 3.674h0.523l0.154-0.789h0.714l0.154 0.789h0.524l-0.83-3.674zM31.308 26.283l0.258-1.332h0.009l0.256 1.332h-0.524z"></path>
            <path d="M35.173 26.112h-0.009l-0.791-2.213h-0.503v3.674h0.523v-2.209h0.011l0.8 2.209h0.492v-3.674h-0.523v2.213z"></path>
            <path d="M38.372 23.899l-0.421 1.461h-0.011l-0.421-1.461h-0.554l0.719 2.121v1.553h0.524v-1.553l0.719-2.121h-0.554z"></path>
            <path d="M17.6 28.61h0.252v0.708h0.171v-0.708h0.251v-0.145h-0.675v0.145z"></path>
            <path d="M19.721 28.465l-0.331 0.853h0.182l0.070-0.194h0.34l0.073 0.194h0.186l-0.339-0.853h-0.182zM19.694 28.981l0.116-0.316 0.116 0.316h-0.232z"></path>
            <path d="M21.818 29.004h0.197v0.11c-0.058 0.046-0.129 0.071-0.202 0.072-0.034 0.002-0.069-0.004-0.1-0.019s-0.059-0.036-0.081-0.063c-0.045-0.065-0.068-0.143-0.063-0.222 0-0.19 0.082-0.285 0.246-0.285 0.043-0.004 0.086 0.007 0.121 0.032s0.061 0.062 0.072 0.104l0.169-0.033c-0.036-0.167-0.156-0.251-0.362-0.251-0.11-0.003-0.216 0.036-0.298 0.11-0.043 0.042-0.076 0.094-0.097 0.15s-0.030 0.117-0.025 0.178c-0.005 0.117 0.034 0.231 0.109 0.32 0.042 0.043 0.092 0.077 0.148 0.098s0.116 0.031 0.176 0.027c0.134 0.004 0.263-0.045 0.362-0.136v-0.336h-0.37v0.144z"></path>
            <path d="M23.959 28.465h-0.173v0.853h0.598v-0.145h-0.425v-0.708z"></path>
            <path d="M25.769 28.465h-0.173v0.853h0.173v-0.853z"></path>
            <path d="M27.539 29.035l-0.349-0.57h-0.167v0.853h0.161v-0.557l0.343 0.557h0.171v-0.853h-0.158v0.57z"></path>
            <path d="M29.14 28.943h0.425v-0.145h-0.425v-0.187h0.457v-0.145h-0.63v0.853h0.648v-0.145h-0.475v-0.231z"></path>
            <path d="M33.020 28.802h-0.336v-0.336h-0.171v0.853h0.171v-0.373h0.336v0.373h0.171v-0.853h-0.171v0.336z"></path>
            <path d="M34.629 28.943h0.426v-0.145h-0.426v-0.187h0.459v-0.145h-0.63v0.853h0.646v-0.145h-0.475v-0.231z"></path>
            <path d="M36.812 28.943c0.148-0.023 0.224-0.102 0.224-0.237 0.004-0.036-0.001-0.073-0.016-0.106s-0.038-0.062-0.068-0.083c-0.077-0.039-0.163-0.056-0.25-0.050h-0.362v0.853h0.171v-0.357h0.034c0.037-0.002 0.073 0.004 0.107 0.019 0.025 0.015 0.046 0.037 0.061 0.062l0.186 0.271h0.205l-0.104-0.167c-0.046-0.082-0.111-0.153-0.189-0.205zM36.64 28.825h-0.127v-0.214h0.135c0.059-0.005 0.118 0.002 0.174 0.020 0.012 0.011 0.022 0.025 0.029 0.040s0.009 0.032 0.009 0.049c-0.001 0.017-0.005 0.033-0.013 0.048s-0.019 0.027-0.032 0.037c-0.056 0.017-0.115 0.024-0.174 0.020z"></path>
            <path d="M38.458 28.943h0.425v-0.145h-0.425v-0.187h0.459v-0.145h-0.631v0.853h0.648v-0.145h-0.475v-0.231z"></path>
        </symbol>
        <symbol id="icon-Logo1" viewBox="0 0 57 32">
            <path d="M20.267 3.733l3.738 3.538-6.938-0.004v17.166h18.133v-6.564l3.733 3.534v-17.671h-18.667zM35.036 17.455l-10.597-10.032h10.597v10.032zM31.746 21.923h-11.81v-11.545h0.835v10.764h10.975v0.782zM22.725 26.72l-0.436 0.898-0.436-0.898h-0.366l0.637 1.198v0.698h0.331v-0.698l0.635-1.198h-0.365zM23.273 28.615l0.154-0.441h0.734l0.155 0.441h0.344l-0.717-1.896h-0.296l-0.716 1.896h0.342zM23.794 27.122l0.275 0.786h-0.549l0.275-0.786zM25.531 27.863c-0.048 0.073-0.072 0.153-0.072 0.241 0 0.16 0.056 0.29 0.168 0.389s0.263 0.148 0.451 0.148 0.349-0.051 0.484-0.152l0.107 0.126h0.367l-0.279-0.329c0.109-0.149 0.164-0.341 0.164-0.574h-0.275c0 0.128-0.026 0.243-0.079 0.348l-0.366-0.432 0.129-0.094c0.091-0.066 0.157-0.132 0.197-0.198s0.060-0.14 0.060-0.219c0-0.12-0.044-0.22-0.133-0.301s-0.201-0.122-0.339-0.122c-0.153 0-0.274 0.043-0.365 0.13s-0.135 0.203-0.135 0.352c0 0.061 0.014 0.124 0.043 0.189s0.081 0.144 0.155 0.237c-0.141 0.101-0.235 0.188-0.283 0.262zM26.386 28.282c-0.093 0.071-0.193 0.107-0.299 0.107-0.095 0-0.17-0.027-0.227-0.082s-0.085-0.126-0.085-0.214c0-0.102 0.052-0.192 0.156-0.271l0.040-0.029 0.414 0.488zM26.046 27.442c-0.089-0.11-0.134-0.202-0.134-0.275 0-0.063 0.018-0.116 0.055-0.158s0.085-0.063 0.147-0.063c0.057 0 0.105 0.018 0.142 0.053s0.056 0.077 0.056 0.126c0 0.075-0.027 0.136-0.081 0.184l-0.040 0.033-0.145 0.099zM29.132 28.472c0.13-0.114 0.205-0.272 0.224-0.474h-0.328c-0.017 0.135-0.059 0.232-0.124 0.29s-0.162 0.087-0.292 0.087c-0.142 0-0.249-0.054-0.323-0.161s-0.109-0.264-0.109-0.469v-0.168c0.002-0.202 0.041-0.355 0.117-0.46s0.188-0.158 0.331-0.158c0.123 0 0.217 0.030 0.28 0.091s0.104 0.158 0.12 0.294h0.328c-0.021-0.207-0.095-0.368-0.223-0.482s-0.296-0.171-0.505-0.171c-0.155 0-0.293 0.037-0.411 0.111s-0.209 0.179-0.272 0.315c-0.063 0.136-0.095 0.294-0.095 0.473v0.177c0.003 0.174 0.035 0.328 0.098 0.46s0.151 0.234 0.266 0.306c0.115 0.071 0.249 0.107 0.4 0.107 0.216 0 0.389-0.056 0.52-0.169zM31.068 28.206c0.064-0.141 0.096-0.304 0.096-0.49v-0.105c-0.001-0.185-0.034-0.347-0.099-0.486s-0.158-0.247-0.277-0.32c-0.119-0.075-0.256-0.112-0.41-0.112s-0.292 0.038-0.411 0.113c-0.119 0.075-0.211 0.183-0.277 0.324s-0.098 0.305-0.098 0.49v0.107c0.001 0.181 0.034 0.342 0.099 0.48s0.159 0.246 0.279 0.322c0.121 0.075 0.258 0.112 0.411 0.112 0.155 0 0.293-0.037 0.411-0.112s0.212-0.183 0.276-0.323zM30.716 27.135c0.080 0.112 0.12 0.273 0.12 0.483v0.099c0 0.214-0.040 0.376-0.119 0.487s-0.19 0.167-0.336 0.167c-0.144 0-0.257-0.057-0.339-0.171s-0.121-0.275-0.121-0.483v-0.109c0.002-0.204 0.043-0.362 0.122-0.473s0.192-0.168 0.335-0.168c0.146 0 0.258 0.056 0.337 0.168z"></path>
        </symbol>
        <symbol id="icon-Vector" viewBox="0 0 10 16">
            <path d="M8.5 0h-7C.673 0 0 .673 0 1.5v13c0 .827.673 1.5 1.5 1.5h7c.827 0 1.5-.673 1.5-1.5v-13C10 .673 9.327 0 8.5 0zm-7 1h7a.5.5 0 0 1 .5.5V12H1V1.5a.5.5 0 0 1 .5-.5zm7 14h-7a.5.5 0 0 1-.5-.5V13h8v1.5a.5.5 0 0 1-.5.5z"/>
        </symbol>
        <symbol id="icon-envelope-hover" viewBox="0 0 21 16">
            <path d="M19.333 0H2C.897 0 0 .897 0 2v12c0 1.103.897 2 2 2h17.333c1.103 0 2-.897 2-2V2c0-1.103-.897-2-2-2zm0 1.333c.091 0 .177.019.255.052l-8.922 7.733-8.922-7.733A.661.661 0 0 1 2 1.333h17.333zm0 13.334H2A.667.667 0 0 1 1.333 14V2.794l8.896 7.71a.665.665 0 0 0 .874 0l8.896-7.71V14a.667.667 0 0 1-.667.667z"/>
        </symbol>
        <symbol id="icon-email" viewBox="0 0 40 30">
            <path d="M35 0H5C2.937 0 1.269 1.688 1.269 3.75l-.019 22.5A3.761 3.761 0 0 0 5 30h30a3.761 3.761 0 0 0 3.75-3.75V3.75A3.76 3.76 0 0 0 35 0zm-.75 7.969-13.256 8.288c-.6.375-1.388.375-1.988 0L5.75 7.969c-.469-.3-.75-.806-.75-1.35 0-1.256 1.369-2.006 2.438-1.35l12.563 7.856 12.562-7.856c1.069-.656 2.438.094 2.438 1.35 0 .544-.281 1.05-.75 1.35z"/>
        </symbol>
        <symbol id="icon-phone" viewBox="0 0 30 30">
            <path d="m25.706 19.548-3.939-.45a3.085 3.085 0 0 0-2.543.884l-2.853 2.853a23.325 23.325 0 0 1-10.219-10.22l2.869-2.869a3.088 3.088 0 0 0 .884-2.543l-.45-3.908A3.104 3.104 0 0 0 6.369.55H3.686C1.934.55.476 2.008.585 3.76c.822 13.243 11.413 23.819 24.641 24.641 1.752.108 3.21-1.349 3.21-3.102v-2.683c.015-1.566-1.163-2.885-2.729-3.071z"/>
        </symbol>
        <symbol id="icon-name" viewBox="0 0 30 30">
            <path d="M15 15c4.144 0 7.5-3.356 7.5-7.5S19.144 0 15 0 7.5 3.356 7.5 7.5 10.856 15 15 15zm0 3.75c-5.006 0-15 2.512-15 7.5v1.875A1.88 1.88 0 0 0 1.875 30h26.25A1.88 1.88 0 0 0 30 28.125V26.25c0-4.988-9.994-7.5-15-7.5z"/>
        </symbol>
        <symbol id="icon-close" viewBox="0 0 30 30">
            <path d="M30 3.021l-3.021-3.021-11.979 11.979-11.979-11.979-3.021 3.021 11.979 11.979-11.979 11.979 3.021 3.021 11.979-11.979 11.979 11.979 3.021-3.021-11.979-11.979 11.979-11.979z"></path>
        </symbol>
        <symbol id="icon-icon-send" viewBox="0 0 30 30">
            <path fill="#fff" style="fill:var(--color1, #fff)" d="M30 0 0 16.875l9.587 3.551L24.375 6.563 13.127 21.737l.009.003-.011-.003V30l5.377-6.273 6.811 2.523L30 0z"/>
        </symbol>
        <symbol id="icon-check" viewBox="0 0 19 15">
            <path fill="#fff" style="fill:var(--color1, #fff);stroke:var(--color1, #fff)" stroke="#fff" stroke-width=".3" d="m2.936 7.127-.103-.098-1.55 1.468 5.461 5.21L18.218 2.761l-1.54-1.469-9.934 9.468-3.808-3.633z"/>
        </symbol>
    </defs>
</svg>